# xmcd
#
# Track frame offsets: 
#        150
#        24010
#        53184
#        67703
#        85662
#        100423
#        125236
#        144083
#        163293
#        182807
#        204239
#        220268
#        244684
#        259724
#        276088
#        294006
#
# Disc length: 4099 seconds
#
# Revision: 4
# Processed by: cddbd v1.5.2PL0 Copyright (c) Steve Scherf et al.
# Submitted via: ExactAudioCopy v0.99pb3
#
DISCID=db100110
DTITLE=Various Artist - He Sings The Blues-01
DYEAR=2005
DGENRE=Rock
TTITLE0=The First Time Ever I Saw Your Face - George Michael
TTITLE1=In The Wee Small Hours Of The Morning - Jamie Cullum
TTITLE2=That's Where It's At - Ray Charles and Lou Rawls
TTITLE3=Sorry Seems To Be The Hardest Word - Joe Cocker
TTITLE4=Ain't No Sunshine - Freddy King
TTITLE5=It Don't Mean A Thing (If It Ain't Got That Swing) - Dr. John
TTITLE6=Arms Of A Woman - Amos Lee
TTITLE7=She's A Mystery To Me - Roy Orbison
TTITLE8=We Gotta Serve Somebody - Aaron Neville
TTITLE9=Rainin' In My Heart - Al Green
TTITLE10=Suddenly - Raul Midon
TTITLE11=Me and Mrs Jones - Freddie Jackson
TTITLE12=California Dreamin' - Bobby Womack
TTITLE13=Human Nature - David Mead
TTITLE14=Eyes Of Blue - Paul Carrack
TTITLE15=Smoke Gets In Your Eyes - Bryan Ferry
EXTD=
EXTT0=
EXTT1=
EXTT2=
EXTT3=
EXTT4=
EXTT5=
EXTT6=
EXTT7=
EXTT8=
EXTT9=
EXTT10=
EXTT11=
EXTT12=
EXTT13=
EXTT14=
EXTT15=
PLAYORDER=
